<mxfile host="app.diagrams.net" modified="2021-06-08T02:29:14.207Z" agent="5.0 (Windows NT 10.0; Win64; x64) AppleWebKit/537.36 (KHTML, like Gecko) Chrome/91.0.4472.77 Safari/537.36 Edg/91.0.864.41" etag="UZX5AKAfi69WoAQ9B1_U" version="14.7.6" type="github">
  <diagram id="-4S-X0PtDjd8pIzSwN5x" name="Page-1">
    <mxGraphModel dx="782" dy="468" grid="1" gridSize="10" guides="1" tooltips="1" connect="1" arrows="1" fold="1" page="1" pageScale="1" pageWidth="850" pageHeight="1100" math="0" shadow="0">
      <root>
        <mxCell id="0" />
        <mxCell id="1" parent="0" />
        <mxCell id="_glz-8ETsj4gpp62GSLf-8" value="Manga Online Website" style="rounded=0;whiteSpace=wrap;html=1;align=right;labelPosition=left;verticalLabelPosition=top;verticalAlign=bottom;horizontal=1;spacing=-20;spacingLeft=0;spacingRight=-120;" parent="1" vertex="1">
          <mxGeometry x="490" y="520" width="150" height="400" as="geometry" />
        </mxCell>
        <mxCell id="_glz-8ETsj4gpp62GSLf-2" value="&lt;font size=&quot;1&quot;&gt;Reading Online&lt;/font&gt;" style="ellipse;whiteSpace=wrap;html=1;" parent="1" vertex="1">
          <mxGeometry x="500" y="550" width="120" height="80" as="geometry" />
        </mxCell>
        <mxCell id="_glz-8ETsj4gpp62GSLf-4" value="&lt;font size=&quot;1&quot;&gt;Browsing&lt;/font&gt;" style="ellipse;whiteSpace=wrap;html=1;" parent="1" vertex="1">
          <mxGeometry x="500" y="640" width="120" height="80" as="geometry" />
        </mxCell>
        <mxCell id="_glz-8ETsj4gpp62GSLf-5" value="&lt;font size=&quot;1&quot;&gt;Discussing&lt;/font&gt;" style="ellipse;whiteSpace=wrap;html=1;" parent="1" vertex="1">
          <mxGeometry x="500" y="830" width="120" height="80" as="geometry" />
        </mxCell>
        <mxCell id="_glz-8ETsj4gpp62GSLf-7" value="&lt;font size=&quot;1&quot;&gt;Reviewing&lt;/font&gt;" style="ellipse;whiteSpace=wrap;html=1;" parent="1" vertex="1">
          <mxGeometry x="500" y="730" width="120" height="80" as="geometry" />
        </mxCell>
        <mxCell id="_glz-8ETsj4gpp62GSLf-10" value="VIewer" style="shape=umlActor;verticalLabelPosition=bottom;verticalAlign=top;html=1;outlineConnect=0;" parent="1" vertex="1">
          <mxGeometry x="360" y="680" width="40" height="80" as="geometry" />
        </mxCell>
        <mxCell id="_glz-8ETsj4gpp62GSLf-15" value="" style="endArrow=none;html=1;entryX=0;entryY=0.5;entryDx=0;entryDy=0;" parent="1" target="_glz-8ETsj4gpp62GSLf-4" edge="1">
          <mxGeometry width="50" height="50" relative="1" as="geometry">
            <mxPoint x="410" y="720" as="sourcePoint" />
            <mxPoint x="530" y="660" as="targetPoint" />
          </mxGeometry>
        </mxCell>
        <mxCell id="_glz-8ETsj4gpp62GSLf-16" value="" style="endArrow=none;html=1;entryX=0;entryY=0.5;entryDx=0;entryDy=0;" parent="1" target="_glz-8ETsj4gpp62GSLf-7" edge="1">
          <mxGeometry width="50" height="50" relative="1" as="geometry">
            <mxPoint x="410" y="720" as="sourcePoint" />
            <mxPoint x="530" y="660" as="targetPoint" />
          </mxGeometry>
        </mxCell>
        <mxCell id="_glz-8ETsj4gpp62GSLf-18" value="" style="endArrow=none;html=1;entryX=0;entryY=0.5;entryDx=0;entryDy=0;" parent="1" target="_glz-8ETsj4gpp62GSLf-5" edge="1">
          <mxGeometry width="50" height="50" relative="1" as="geometry">
            <mxPoint x="410" y="720" as="sourcePoint" />
            <mxPoint x="530" y="770" as="targetPoint" />
          </mxGeometry>
        </mxCell>
        <mxCell id="_glz-8ETsj4gpp62GSLf-19" value="" style="endArrow=none;html=1;entryX=0;entryY=0.5;entryDx=0;entryDy=0;" parent="1" target="_glz-8ETsj4gpp62GSLf-2" edge="1">
          <mxGeometry width="50" height="50" relative="1" as="geometry">
            <mxPoint x="410" y="720" as="sourcePoint" />
            <mxPoint x="530" y="600" as="targetPoint" />
          </mxGeometry>
        </mxCell>
      </root>
    </mxGraphModel>
  </diagram>
</mxfile>
